<?xml version="1.0" encoding="UTF-8" standalone="no"?>
<svg
   xmlns:dc="http://purl.org/dc/elements/1.1/"
   xmlns:cc="http://creativecommons.org/ns#"
   xmlns:rdf="http://www.w3.org/1999/02/22-rdf-syntax-ns#"
   xmlns:svg="http://www.w3.org/2000/svg"
   xmlns="http://www.w3.org/2000/svg"
   xmlns:sodipodi="http://sodipodi.sourceforge.net/DTD/sodipodi-0.dtd"
   xmlns:inkscape="http://www.inkscape.org/namespaces/inkscape"
   width="112.76308mm"
   height="47.071198mm"
   viewBox="0 0 399.554 166.78768"
   id="svg4643"
   version="1.1"
   inkscape:version="0.91 r13725"
   sodipodi:docname="logoMyPowerOnly.svg">
  <sodipodi:namedview
     pagecolor="#ffffff"
     bordercolor="#666666"
     borderopacity="1"
     objecttolerance="10"
     gridtolerance="10"
     guidetolerance="10"
     inkscape:pageopacity="0"
     inkscape:pageshadow="2"
     inkscape:window-width="1920"
     inkscape:window-height="1017"
     id="namedview18"
     showgrid="false"
     inkscape:zoom="0.93536508"
     inkscape:cx="446.45889"
     inkscape:cy="-4.1559747"
     inkscape:window-x="1912"
     inkscape:window-y="-8"
     inkscape:window-maximized="1"
     inkscape:current-layer="svg4643"
     fit-margin-top="0"
     fit-margin-left="0"
     fit-margin-right="0"
     fit-margin-bottom="0" />
  <defs
     id="defs4645" />
  <metadata
     id="metadata4648">
    <rdf:RDF>
      <cc:Work
         rdf:about="">
        <dc:format>image/svg+xml</dc:format>
        <dc:type
           rdf:resource="http://purl.org/dc/dcmitype/StillImage" />
        <dc:title></dc:title>
      </cc:Work>
    </rdf:RDF>
  </metadata>
  <path
     inkscape:connector-curvature="0"
     id="path4652"
     d="M 13.547737,77.513059 C 12.858838,73.821743 9.2890929,71.371918 5.5793566,72.051606 1.8733047,72.740504 -0.57283689,76.31025 0.11606141,80.02367 c 0.6907403,3.71342 4.25311819,6.155877 7.96653799,5.476189 3.7097356,-0.696266 6.1577196,-4.258644 5.4651376,-7.9868"
     style="fill:#ffb700" />
  <path
     inkscape:connector-curvature="0"
     id="path4654"
     d="M 397.7117,62.22099 344.31655,14.974355 c -24.68061,-21.8310777 -62.5166,-19.5212421 -84.34399,5.161211 l -17.5356,19.819641 c -0.0129,0.01658 -0.0313,0.02763 -0.0461,0.04237 0,0 -4.20522,4.757819 -10.34821,11.707587 l -48.41076,54.717676 c -16.59434,18.39764 -39.91005,28.81952 -65.15246,29.89524 -23.833308,1.02598 -47.051391,-6.66795 -65.94452,-21.71872 L 31.978529,96.420923 c -2.245366,-1.989332 -5.671438,-1.768295 -7.662612,0.47523 -1.9967,2.238002 -1.777505,5.671437 0.47523,7.671817 l 53.396987,47.24479 c 24.678766,21.83292 62.516596,19.52124 84.343996,-5.16305 l 17.53375,-19.81964 c 0.0147,-0.0147 0.0313,-0.0276 0.0461,-0.0424 0,0 4.20523,-4.75597 10.35005,-11.70574 L 238.8709,60.362438 c 16.59619,-18.395795 39.91006,-28.819526 65.15247,-29.897081 23.83514,-1.022296 47.05138,6.667946 65.94635,21.718716 l 20.55644,18.180285 c 2.24536,1.98749 5.67143,1.770137 7.66077,-0.47523 1.9967,-2.236156 1.77934,-5.667754 -0.47523,-7.668138"
     style="fill:#ffb700" />
  <path
     inkscape:connector-curvature="0"
     id="path4656"
     d="m 100.36182,65.151571 c 11.26183,-12.728041 27.22438,-19.924634 44.52235,-20.670633 16.13386,-0.692583 31.85879,4.512836 44.65314,14.708163 l 24.06723,21.173492 c 1.52516,1.335431 3.84236,1.199125 5.19069,-0.329713 1.35201,-1.515945 1.19912,-3.842358 -0.32051,-5.188841 L 172.16565,33.989053 C 155.45158,19.210895 129.83525,20.774731 115.04788,37.486962 L 65.288789,93.619281 c -0.379447,0.41997 -0.628113,0.900725 -0.777313,1.40911 -0.386815,1.322537 -0.0092,2.812694 1.092291,3.781574 1.519628,1.342795 3.851568,1.210175 5.194367,-0.31498 0,0 29.226606,-32.956599 29.563686,-33.343414"
     style="fill:#ffb700" />
</svg>
