<?xml version="1.0" encoding="UTF-8" standalone="no"?>
<svg
   xmlns:dc="http://purl.org/dc/elements/1.1/"
   xmlns:cc="http://creativecommons.org/ns#"
   xmlns:rdf="http://www.w3.org/1999/02/22-rdf-syntax-ns#"
   xmlns:svg="http://www.w3.org/2000/svg"
   xmlns="http://www.w3.org/2000/svg"
   version="1.1"
   id="svg4643"
   viewBox="0 0 744.09449 177.16533"
   height="50mm"
   width="210mm">
  <defs
     id="defs4645" />
  <metadata
     id="metadata4648">
    <rdf:RDF>
      <cc:Work
         rdf:about="">
        <dc:format>image/svg+xml</dc:format>
        <dc:type
           rdf:resource="http://purl.org/dc/dcmitype/StillImage" />
        <dc:title></dc:title>
      </cc:Work>
    </rdf:RDF>
  </metadata>
  <path
     style="fill:#ffb700"
     d="m 15.244637,79.732934 c -0.688899,-3.691316 -4.258644,-6.141141 -7.9683803,-5.461453 -3.7060519,0.688898 -6.1521935,4.258644 -5.4632952,7.972064 0.6907403,3.71342 4.2531182,6.155877 7.966538,5.476189 3.7097355,-0.696266 6.1577195,-4.258644 5.4651375,-7.9868"
     id="path4652" />
  <path
     style="fill:#ffb700"
     d="M 399.4086,64.440865 346.01345,17.19423 c -24.68061,-21.8310775 -62.5166,-19.5212419 -84.34399,5.161211 l -17.5356,19.819641 c -0.0129,0.01658 -0.0313,0.02763 -0.0461,0.04237 0,0 -4.20522,4.757819 -10.34821,11.707587 l -48.41076,54.717685 c -16.59434,18.39764 -39.91005,28.81952 -65.15246,29.89524 -23.833308,1.02598 -47.051391,-6.66795 -65.94452,-21.71872 L 33.675429,98.640798 c -2.245366,-1.989332 -5.671438,-1.768295 -7.662612,0.47523 -1.9967,2.238002 -1.777505,5.671442 0.47523,7.671822 l 53.396987,47.24479 c 24.678766,21.83292 62.516596,19.52124 84.343996,-5.16305 l 17.53375,-19.81964 c 0.0147,-0.0147 0.0313,-0.0276 0.0461,-0.0424 0,0 4.20523,-4.75597 10.35005,-11.70574 L 240.5678,62.582313 c 16.59619,-18.395795 39.91006,-28.819526 65.15247,-29.897081 23.83514,-1.022296 47.05138,6.667946 65.94635,21.718716 l 20.55644,18.180285 c 2.24536,1.98749 5.67143,1.770137 7.66077,-0.47523 1.9967,-2.236156 1.77934,-5.667754 -0.47523,-7.668138"
     id="path4654" />
  <path
     style="fill:#ffb700"
     d="m 102.05872,67.371446 c 11.26183,-12.728041 27.22438,-19.924634 44.52235,-20.670633 16.13386,-0.692583 31.85879,4.512836 44.65314,14.708163 l 24.06723,21.173492 c 1.52516,1.335431 3.84236,1.199125 5.19069,-0.329713 1.35201,-1.515945 1.19912,-3.842358 -0.32051,-5.188841 L 173.86255,36.208928 C 157.14848,21.43077 131.53215,22.994606 116.74478,39.706837 L 66.985689,95.839156 c -0.379447,0.41997 -0.628113,0.900725 -0.777313,1.40911 -0.386815,1.322537 -0.0092,2.812694 1.092291,3.781574 1.519628,1.3428 3.851568,1.21018 5.194367,-0.31498 0,0 29.226606,-32.956599 29.563686,-33.343414"
     id="path4656" />
  <path
     style="fill:#000000;stroke:#000000;stroke-width:1.84197414;stroke-opacity:1;fill-opacity:1"
     d="m 295.43653,105.3069 c -4.97702,0 -10.41637,1.30228 -16.59435,3.97682 -3.17188,-2.64139 -7.39368,-3.97682 -12.57331,-3.97682 -4.68967,0 -9.48801,0.79389 -14.23662,2.34852 -2.65797,0.83441 -6.19088,2.56219 -6.19088,7.87444 l 0,43.2735 9.61327,0 0,-42.52013 c 4.70624,-1.42017 7.58525,-1.72778 10.36294,-1.72778 6.41928,0 9.28171,3.05768 9.28171,9.91351 l 0,34.33624 9.61142,0 0,-34.78384 c 0,-2.56771 -0.33708,-4.89597 -1.00756,-6.95345 4.06155,-1.46253 7.1616,-2.32642 11.19184,-2.32642 6.46348,0 9.10119,2.84585 9.10119,9.82141 l 0,34.24414 9.52116,0 0,-34.78568 c 0,-11.89179 -6.59058,-18.71446 -18.08081,-18.71446"
     id="path4658" />
  <path
     style="fill:#000000;stroke:#000000;stroke-width:1.84197414;stroke-opacity:1;fill-opacity:1"
     d="m 343.18418,145.82849 -14.88684,-40.16056 -10.73134,0 20.57485,53.45777 -0.62074,2.00775 c -1.03887,3.72079 -2.35957,4.85545 -5.65302,4.85545 -1.60436,0 -3.73921,-0.45497 -7.92233,-1.47911 l -2.0888,-0.50838 -1.57304,9.12698 1.72777,0.49733 c 3.75762,1.08677 6.95161,1.61357 9.76614,1.61357 7.3679,0 12.55306,-3.87551 14.99736,-11.21394 l 19.4844,-58.35742 -10.3961,0 -12.67831,40.16056 z"
     id="path4660" />
  <path
     style="fill:#000000;stroke:#000000;stroke-width:1.84197414;stroke-opacity:1;fill-opacity:1"
     d="m 394.29528,105.3069 c -2.5714,0 -7.00871,0.24867 -15.86677,2.41483 -4.10576,1.08677 -6.18903,3.68395 -6.18903,7.71787 l 0,60.73357 9.43275,-2.04091 0,-17.22798 c 6.21666,1.85487 9.60958,2.26379 12.62305,2.26379 14.82605,0 23.67857,-10.13823 23.67857,-27.11386 0,-16.74723 -8.85068,-26.74731 -23.67857,-26.74731 m 13.97505,26.83941 c 0,11.89547 -4.65835,17.68111 -14.18504,17.68111 -2.40193,-0.0737 -5.34725,-0.31682 -12.41306,-2.22879 l 0,-31.21041 c 6.76004,-1.59883 9.58379,-1.73882 12.07966,-1.73882 9.63353,0 14.51844,5.88694 14.51844,17.49691"
     id="path4662" />
  <path
     style="fill:#000000;stroke:#000000;stroke-width:1.84197414;stroke-opacity:1;fill-opacity:1"
     d="m 450.3226,105.12639 c -15.27365,0 -24.75981,10.39058 -24.75981,27.11202 0,16.72328 9.38486,27.11201 24.49088,27.11201 15.21839,0 24.67325,-10.38873 24.67325,-27.11201 -0.002,-16.72329 -9.34986,-27.11202 -24.40432,-27.11202 m 14.69896,27.11202 c 0,15.05998 -7.99417,18.2208 -14.69896,18.2208 -6.78767,0 -14.87762,-3.16082 -14.87762,-18.2208 0,-6.77294 1.89539,-18.13056 14.60869,-18.13056 9.51196,0 14.96789,6.60901 14.96789,18.13056"
     id="path4664" />
  <path
     style="fill:#000000;stroke:#000000;stroke-width:1.84197414;stroke-opacity:1;fill-opacity:1"
     d="m 529.9143,143.78206 -11.57496,-34.27177 c -0.82152,-2.61192 -2.8698,-4.11129 -5.61618,-4.11129 -2.78507,0 -4.83518,1.50858 -5.5996,4.06524 l -11.70943,34.15941 -7.12107,-37.95204 -9.97429,0 9.60405,48.781 c 0.74784,3.23451 3.20135,5.16858 6.56295,5.16858 3.18478,0 5.46883,-1.65041 6.41007,-4.60309 l 11.7868,-34.19441 11.24709,34.12994 c 1.41648,3.93262 4.26233,4.75966 6.40454,4.75966 3.31924,0 5.73775,-1.97275 6.47638,-5.29383 l 10.35927,-48.74785 -9.72563,0 -7.52999,38.11045 z"
     id="path4666" />
  <path
     style="fill:#000000;stroke:#000000;stroke-width:1.84197414;stroke-opacity:1;fill-opacity:1"
     d="m 599.69197,131.15533 c 0,-16.41015 -8.81753,-26.20945 -23.59017,-26.20945 -6.57584,0 -12.49226,2.37798 -16.66065,6.69741 -4.64914,4.82229 -7.10634,11.97468 -7.10634,20.68353 0,16.92037 9.39223,27.01992 25.12269,27.01992 5.24226,0 9.37933,-0.75889 15.80598,-2.90111 l 6.06193,-2.02065 -2.06853,-9.06435 -6.48559,2.11459 c -5.75986,1.7775 -9.29461,2.43877 -13.04302,2.43877 -8.78438,0 -14.28267,-4.75782 -15.34549,-13.14433 l 32.05035,0 c 3.19583,0.002 5.25884,-2.203 5.25884,-5.61433 m -9.86377,-3.45186 -27.43437,0 c 1.07572,-8.72728 6.0601,-13.86639 13.61956,-13.86639 10.79949,-0.002 13.38931,7.94444 13.81481,13.86639"
     id="path4668" />
  <path
     style="fill:#000000;stroke:#000000;stroke-width:1.84197414;stroke-opacity:1;fill-opacity:1"
     d="m 616.52577,107.63147 c -4.22549,1.11992 -6.27929,3.6729 -6.27929,7.80997 l 0,43.36376 9.61326,0 0,-42.25857 c 5.51856,-1.33912 10.42189,-1.62646 15.96255,-1.62646 l 2.00775,0 0,-9.61327 -2.00775,0 c -8.03101,0 -12.15703,0.35182 -19.29652,2.32457"
     id="path4670" />
  <path
     style="fill:#000000;stroke:#000000;stroke-width:1.84197414;stroke-opacity:1;fill-opacity:1"
     d="m 677.02357,132.24393 c 9.12145,-8.57807 11.82915,-15.71204 11.82915,-22.48498 0,-13.634288 -9.57089,-18.421579 -19.68517,-18.421579 -5.33068,0 -11.37972,1.355693 -18.0624,3.431598 l -3.25109,0.992824 1.17518,5.419087 3.4316,-1.08308 c 6.04904,-1.897233 12.00783,-3.160828 16.70486,-3.160828 7.67367,0 14.08558,3.341338 14.08558,12.731728 0,6.95345 -3.52185,12.28228 -10.47531,18.96312 l -23.4778,22.57524 c -1.08676,1.08492 -1.80698,2.43877 -1.80698,4.06339 0,2.34852 1.35386,3.88288 3.70237,3.88288 l 37.83599,0 0,-5.14647 -35.1246,0 23.11862,-21.76293 z"
     id="path4672" />
  <path
     style="fill:#000000;stroke:#000000;stroke-width:1.84197414;stroke-opacity:1;fill-opacity:1"
     d="m 734.13766,141.18487 0,-45.421235 c 0,-2.980314 -1.44411,-4.334165 -4.15366,-4.334165 -1.98564,0 -3.61211,0.902567 -4.8757,2.888215 l -28.89689,44.340005 c -0.81231,1.17518 -1.44411,2.43693 -1.44411,3.88104 0,2.25826 1.08308,3.70236 3.70237,3.70236 l 30.07023,0 0,12.91408 5.59776,0 0,-12.91408 8.03653,0 0,-5.05622 -8.03653,0 z m -5.59776,0 -27.54304,0 27.54304,-42.442763 0,42.442763 z"
     id="path4674" />
</svg>
