<?xml version="1.0" encoding="utf-8"?>
<!-- Generator: Adobe Illustrator 16.0.0, SVG Export Plug-In . SVG Version: 6.00 Build 0)  -->
<!DOCTYPE svg PUBLIC "-//W3C//DTD SVG 1.1//EN" "http://www.w3.org/Graphics/SVG/1.1/DTD/svg11.dtd">
<svg version="1.1" id="Layer_1" xmlns="http://www.w3.org/2000/svg" xmlns:xlink="http://www.w3.org/1999/xlink" x="0px" y="0px"
	 width="1336px" height="613px" viewBox="0 0 1336 613" enable-background="new 0 0 1336 613" xml:space="preserve">
<g>
	<defs>
		<rect id="SVGID_1_" x="-332" y="-248.566" width="2000" height="1110.566"/>
	</defs>
	<clipPath id="SVGID_2_">
		<use xlink:href="#SVGID_1_"  overflow="visible"/>
	</clipPath>
	<path clip-path="url(#SVGID_2_)" fill="#FFB700" d="M486.852,417.075c-34.272-30.303-53.64-73.272-55.642-119.805
		c-1.865-43.421,12.149-85.747,39.583-120.17l33.135-37.448c3.609-4.103,3.23-10.346-0.878-13.973
		c-4.072-3.638-10.333-3.23-13.972,0.866l-86.096,97.302c-39.776,44.985-35.571,113.917,9.413,153.711l181.238,160.355
		c1.125,1.01,2.424,1.684,3.783,2.093c3.561,1.034,7.573,0.012,10.195-2.948c3.609-4.078,3.242-10.356-0.866-13.966
		C606.745,523.092,487.874,418.001,486.852,417.075"/>
	<path clip-path="url(#SVGID_2_)" fill="#FFB700" d="M531.867,81.633c-5.888,1.095-9.792,6.773-8.691,12.668
		c1.083,5.894,6.766,9.798,12.661,8.697c5.918-1.107,9.804-6.773,8.703-12.668C543.446,84.424,537.78,80.521,531.867,81.633"/>
	<path clip-path="url(#SVGID_2_)" fill="#FFB700" d="M198.924,484.285c30.302-34.261,73.266-53.652,119.803-55.638
		c43.432-1.864,85.741,12.15,120.169,39.577l37.46,33.129c4.091,3.621,10.334,3.226,13.961-0.865
		c3.639-4.077,3.242-10.333-0.866-13.979l-97.301-86.095c-44.973-39.782-113.921-35.572-153.697,9.405L78.108,591.059
		c-1.029,1.131-1.702,2.443-2.111,3.79c-1.029,3.561,0,7.566,2.953,10.201c4.084,3.597,10.357,3.224,13.978-0.878
		C92.928,604.172,198.004,485.307,198.924,484.285"/>
	<path clip-path="url(#SVGID_2_)" fill="#FFB700" d="M534.369,529.287c-1.095-5.87-6.773-9.768-12.673-8.686
		c-5.895,1.095-9.786,6.772-8.692,12.68c1.101,5.906,6.767,9.792,12.673,8.709C531.578,540.883,535.47,535.218,534.369,529.287"/>
	<path clip-path="url(#SVGID_2_)" fill="#FFB700" d="M131.727,196.365c34.26,30.309,53.634,73.266,55.643,119.806
		c1.853,43.427-12.15,85.735-39.583,120.176l-33.136,37.447c-3.609,4.103-3.23,10.335,0.872,13.968
		c4.085,3.632,10.34,3.235,13.973-0.866l86.101-97.308c39.776-44.967,35.56-113.917-9.413-153.699L24.956,75.534
		c-1.131-1.022-2.436-1.691-3.796-2.1c-3.561-1.028-7.572-0.006-10.189,2.954c-3.603,4.089-3.248,10.357,0.866,13.978
		C11.836,90.366,130.698,195.445,131.727,196.365"/>
	<path clip-path="url(#SVGID_2_)" fill="#FFB700" d="M86.721,531.813c5.883-1.095,9.774-6.784,8.691-12.68
		c-1.1-5.895-6.779-9.792-12.673-8.697c-5.907,1.106-9.804,6.773-8.703,12.68C75.136,529.022,80.803,532.908,86.721,531.813"/>
	<path clip-path="url(#SVGID_2_)" fill="#FFB700" d="M419.655,129.168c-30.309,34.254-73.266,53.622-119.815,55.625
		c-43.421,1.865-85.735-12.144-120.17-39.577l-37.448-33.142c-4.102-3.597-10.339-3.23-13.966,0.884
		c-3.639,4.078-3.23,10.34,0.86,13.967l97.307,86.107c44.979,39.771,113.914,35.56,153.709-9.413L540.48,22.375
		c1.023-1.13,1.69-2.423,2.093-3.789c1.041-3.561,0.024-7.573-2.941-10.177c-4.09-3.621-10.363-3.26-13.979,0.848
		C525.653,9.257,420.563,128.128,419.655,129.168"/>
	<path clip-path="url(#SVGID_2_)" fill="#FFB700" d="M84.213,84.147c1.101,5.889,6.766,9.786,12.661,8.686
		c5.903-1.083,9.795-6.773,8.695-12.662c-1.102-5.918-6.773-9.809-12.665-8.709C86.998,72.563,83.112,78.229,84.213,84.147"/>
	<path clip-path="url(#SVGID_2_)" fill="#231F20" d="M598.84,267.203c12.789,0,24.407,3.163,35.36,6.445l13.193,3.567l4.639-22.81
		l-12.132-3.368c-14.321-4.358-25.597-6.881-40.857-6.881c-21.008,0-42.206,11.433-42.206,36.973
		c0,17.967,12.164,30.459,33.382,34.275l21.598,3.834c14.059,2.313,15.236,7.189,15.236,11.987
		c0,10.846-10.091,13.123-18.555,13.123c-12.302,0-23.715-2.945-35.185-6.193l-13.029-3.984l-5.065,22.988l12.49,3.377
		c13.86,4.018,24.883,6.859,40.588,6.859c21.107,0,42.405-11.369,42.405-36.771c0-17.96-12.422-30.776-33.238-34.283l-21.667-3.611
		c-14.127-2.517-15.308-7.409-15.308-12.203C580.489,268.934,591.987,267.203,598.84,267.203"/>
	<path clip-path="url(#SVGID_2_)" fill="#231F20" d="M718.754,244.155c-34.722,0-56.289,23.574-56.289,61.521
		c0,37.945,21.338,61.519,55.685,61.519c34.596,0,56.087-23.573,56.087-61.519C774.237,267.729,752.979,244.155,718.754,244.155
		 M718.15,266.399c12.038,0,32.234,5.102,32.234,39.277c0,18.008-5.489,39.476-31.631,39.476c-26.476,0-32.033-21.468-32.033-39.476
		C686.721,291.007,690.803,266.399,718.15,266.399"/>
	<polygon clip-path="url(#SVGID_2_)" fill="#231F20" points="791.778,365.986 815.631,365.986 815.631,198.517 791.778,203.816 	"/>
	<path clip-path="url(#SVGID_2_)" fill="#231F20" d="M935.221,286.159c0-26.301-16.605-42.004-44.418-42.004
		c-12.042,0-24.383,3.048-39.281,7.034l-12.525,3.386l4.696,22.698l13.638-3.849c10.142-2.897,23.085-6.222,33.271-6.222
		c18.94,0,21.371,10.13,21.371,18.957v8.293h-28.815c-30.403,0-47.839,13.697-47.839,37.578c0,21.813,15.555,35.364,40.595,35.364
		c11.466,0,25.928-3.508,31.627-5.019l8.241-2.212c3.811-1.02,6.342-0.766,10.316,1.291l14.041,8.424l9.894-19.382l-14.812-9.116
		V286.159z M877.726,345.151c-16.625,0-18.755-7.227-18.755-13.522c0-7.484,2.849-15.134,23.985-15.134h29.017v22.908l-8.592,1.879
		C893.438,343.669,883.606,345.151,877.726,345.151"/>
	<path clip-path="url(#SVGID_2_)" fill="#231F20" d="M1020.795,244.557c-18.006,0-27.261,0.79-43.281,5.216
		c-9.832,2.606-14.818,8.824-14.818,18.48v97.734h23.651v-94.391c11.849-2.781,22.472-3.388,34.448-3.388h5.589v-23.652H1020.795z"
		/>
	<path clip-path="url(#SVGID_2_)" fill="#231F20" d="M1165.161,224.314c2.415-6.237,6.64-9.053,11.87-9.053
		c5.432,0,10.06,2.816,10.06,10.461v140.229h-12.273V231.355l-48.485,129.165c-1.608,4.225-4.427,6.237-9.254,6.237
		c-5.029,0-8.05-2.214-9.458-6.237l-47.681-129.165v134.596h-12.071V225.722c0-7.846,4.829-10.461,10.663-10.461
		c6.438,0,10.461,2.816,12.675,9.053l46.072,127.956L1165.161,224.314z"/>
	<path clip-path="url(#SVGID_2_)" fill="#231F20" d="M1261.52,365.951h-38.227c-8.248,0-13.077-4.425-13.077-12.071V228.538
		c0-7.846,4.829-12.271,13.077-12.271h38.828c39.435,0,65.388,27.964,65.388,75.244
		C1327.509,338.992,1300.349,365.951,1261.52,365.951 M1259.507,227.735h-36.214v126.547h37.621
		c34.002,0,53.518-22.937,53.518-62.771C1314.432,252.882,1294.313,227.735,1259.507,227.735"/>
</g>
</svg>
