<?xml version="1.0" encoding="utf-8"?>
<!-- Generator: Adobe Illustrator 16.0.0, SVG Export Plug-In . SVG Version: 6.00 Build 0)  -->
<!DOCTYPE svg PUBLIC "-//W3C//DTD SVG 1.1//EN" "http://www.w3.org/Graphics/SVG/1.1/DTD/svg11.dtd">
<svg version="1.1" id="Layer_1" xmlns="http://www.w3.org/2000/svg" xmlns:xlink="http://www.w3.org/1999/xlink" x="0px" y="0px"
	 width="404.334px" height="96.083px" viewBox="0 0 404.334 96.083" enable-background="new 0 0 404.334 96.083"
	 xml:space="preserve">
<path fill="#FFB700" d="M8.394,42.931c-0.374-2.004-2.312-3.334-4.326-2.965c-2.012,0.374-3.34,2.312-2.966,4.328
	c0.375,2.016,2.309,3.342,4.325,2.973C7.441,46.889,8.77,44.955,8.394,42.931"/>
<path fill="#FFB700" d="M216.955,34.629l-28.988-25.65c-13.399-11.852-33.94-10.598-45.79,2.802l-9.52,10.76
	c-0.007,0.009-0.017,0.015-0.025,0.023c0,0-2.283,2.583-5.618,6.356l-26.282,29.706c-9.009,9.988-21.667,15.646-35.371,16.23
	c-12.939,0.557-25.544-3.62-35.801-11.791L18.4,53.196c-1.219-1.08-3.079-0.96-4.16,0.258c-1.084,1.215-0.965,3.079,0.258,4.165
	l28.989,25.649c13.398,11.853,33.94,10.598,45.79-2.803l9.519-10.76c0.008-0.008,0.017-0.015,0.025-0.023
	c0,0,2.283-2.582,5.619-6.355l26.281-29.707c9.01-9.987,21.667-15.646,35.371-16.231c12.94-0.555,25.544,3.62,35.802,11.791
	l11.16,9.87c1.219,1.079,3.079,0.961,4.159-0.258C218.297,37.578,218.179,35.715,216.955,34.629"/>
<path fill="#FFB700" d="M55.525,36.22c6.114-6.91,14.78-10.817,24.171-11.222c8.759-0.376,17.296,2.45,24.242,7.985l13.066,11.495
	c0.828,0.725,2.086,0.651,2.818-0.179c0.734-0.823,0.651-2.086-0.174-2.817l-25.141-22.18c-9.074-8.023-22.981-7.174-31.009,1.899
	L36.484,51.675c-0.206,0.228-0.341,0.489-0.422,0.765c-0.21,0.718-0.005,1.527,0.593,2.053c0.825,0.729,2.091,0.657,2.82-0.171
	C39.475,54.322,55.342,36.43,55.525,36.22"/>
<path fill="#ffffff" d="M160.509,56.815c-2.702,0-5.655,0.707-9.009,2.159c-1.722-1.434-4.014-2.159-6.826-2.159
	c-2.546,0-5.151,0.431-7.729,1.275c-1.443,0.453-3.361,1.391-3.361,4.275v23.493h5.219V62.774c2.555-0.771,4.118-0.938,5.626-0.938
	c3.485,0,5.039,1.66,5.039,5.382v18.641h5.218V66.975c0-1.394-0.183-2.658-0.547-3.775c2.205-0.794,3.888-1.263,6.076-1.263
	c3.509,0,4.941,1.545,4.941,5.332v18.591h5.169V66.975C170.325,60.519,166.747,56.815,160.509,56.815"/>
<path fill="#ffffff" d="M186.431,78.814l-8.082-21.803h-5.826l11.17,29.022l-0.337,1.09c-0.564,2.02-1.281,2.636-3.069,2.636
	c-0.871,0-2.03-0.247-4.301-0.803l-1.134-0.276l-0.854,4.955l0.938,0.27c2.04,0.59,3.774,0.876,5.302,0.876
	c4,0,6.815-2.104,8.142-6.088l10.578-31.682h-5.644L186.431,78.814z"/>
<path fill="#ffffff" d="M214.179,56.815c-1.396,0-3.805,0.135-8.614,1.311c-2.229,0.59-3.36,2-3.36,4.19v32.972l5.121-1.108v-9.353
	c3.375,1.007,5.217,1.229,6.853,1.229c8.049,0,12.855-5.504,12.855-14.72C227.034,62.244,222.229,56.815,214.179,56.815
	 M221.766,71.386c0,6.458-2.529,9.599-7.701,9.599c-1.304-0.04-2.903-0.172-6.739-1.21V62.831c3.67-0.868,5.203-0.944,6.558-0.944
	C219.114,61.887,221.766,65.083,221.766,71.386"/>
<path fill="#ffffff" d="M244.596,56.717c-8.292,0-13.442,5.641-13.442,14.719c0,9.079,5.095,14.719,13.296,14.719
	c8.262,0,13.395-5.64,13.395-14.719C257.844,62.357,252.769,56.717,244.596,56.717 M252.576,71.436c0,8.176-4.34,9.892-7.98,9.892
	c-3.685,0-8.077-1.716-8.077-9.892c0-3.677,1.029-9.843,7.931-9.843C249.614,61.593,252.576,65.181,252.576,71.436"/>
<path fill="#ffffff" d="M287.806,77.703l-6.284-18.606c-0.446-1.418-1.558-2.232-3.049-2.232c-1.512,0-2.625,0.819-3.04,2.207
	l-6.357,18.545l-3.866-20.604h-5.415l5.214,26.483c0.406,1.756,1.738,2.806,3.563,2.806c1.729,0,2.969-0.896,3.48-2.499
	l6.399-18.564l6.106,18.529c0.769,2.135,2.314,2.584,3.477,2.584c1.802,0,3.115-1.071,3.516-2.874l5.624-26.465h-5.28
	L287.806,77.703z"/>
<path fill="#ffffff" d="M325.688,70.848c0-8.909-4.787-14.229-12.807-14.229c-3.57,0-6.782,1.291-9.045,3.636
	c-2.524,2.618-3.858,6.501-3.858,11.229c0,9.186,5.099,14.669,13.639,14.669c2.846,0,5.092-0.412,8.581-1.575l3.291-1.097
	l-1.123-4.921l-3.521,1.148c-3.127,0.965-5.046,1.324-7.081,1.324c-4.769,0-7.754-2.583-8.331-7.136h17.4
	C324.568,73.897,325.688,72.7,325.688,70.848 M320.333,68.974h-14.894c0.584-4.738,3.29-7.528,7.394-7.528
	C318.696,61.445,320.102,65.759,320.333,68.974"/>
<path fill="#ffffff" d="M334.827,58.077c-2.294,0.608-3.409,1.994-3.409,4.24v23.542h5.219V62.917
	c2.996-0.727,5.658-0.883,8.666-0.883h1.09v-5.219h-1.09C340.943,56.815,338.703,57.006,334.827,58.077"/>
<path fill="#ffffff" d="M367.671,71.439c4.952-4.657,6.422-8.53,6.422-12.207c0-7.402-5.196-10.001-10.687-10.001
	c-2.894,0-6.178,0.736-9.806,1.863l-1.765,0.539l0.638,2.942l1.863-0.588c3.284-1.03,6.519-1.716,9.069-1.716
	c4.166,0,7.647,1.814,7.647,6.912c0,3.775-1.912,6.668-5.687,10.295l-12.746,12.256c-0.59,0.589-0.981,1.324-0.981,2.206
	c0,1.275,0.735,2.108,2.01,2.108h20.541v-2.794h-19.069L367.671,71.439z"/>
<path fill="#ffffff" d="M398.678,76.293V51.634c0-1.618-0.784-2.353-2.255-2.353c-1.078,0-1.961,0.49-2.647,1.568l-15.688,24.072
	c-0.441,0.638-0.784,1.323-0.784,2.107c0,1.226,0.588,2.01,2.01,2.01h16.325v7.011h3.039v-7.011h4.363v-2.745H398.678z
	 M395.639,76.293h-14.953l14.953-23.042V76.293z"/>
</svg>
