<?xml version="1.0" encoding="UTF-8" standalone="no"?>
<svg
   xmlns:dc="http://purl.org/dc/elements/1.1/"
   xmlns:cc="http://creativecommons.org/ns#"
   xmlns:rdf="http://www.w3.org/1999/02/22-rdf-syntax-ns#"
   xmlns:svg="http://www.w3.org/2000/svg"
   xmlns="http://www.w3.org/2000/svg"
   width="210mm"
   height="50mm"
   viewBox="0 0 744.09449 177.16533"
   id="svg4643"
   version="1.1">
  <defs
     id="defs4645" />
  <metadata
     id="metadata4648">
    <rdf:RDF>
      <cc:Work
         rdf:about="">
        <dc:format>image/svg+xml</dc:format>
        <dc:type
           rdf:resource="http://purl.org/dc/dcmitype/StillImage" />
        <dc:title></dc:title>
      </cc:Work>
    </rdf:RDF>
  </metadata>
  <g
     transform="matrix(1.8419741,0,0,1.8419741,-533.2632,-965.07983)"
     id="layer1">
    <path
       style="fill:#ffb700"
       d="m 297.7826,567.22446 c -0.374,-2.004 -2.312,-3.334 -4.326,-2.965 -2.012,0.374 -3.34,2.312 -2.966,4.328 0.375,2.016 2.309,3.342 4.325,2.973 2.014,-0.378 3.343,-2.312 2.967,-4.336"
       id="path4652" />
    <path
       style="fill:#ffb700"
       d="m 506.3436,558.92246 -28.988,-25.65 c -13.399,-11.852 -33.94,-10.598 -45.79,2.802 l -9.52,10.76 c -0.007,0.009 -0.017,0.015 -0.025,0.023 0,0 -2.283,2.583 -5.618,6.356 l -26.282,29.706 c -9.009,9.988 -21.667,15.646 -35.371,16.23 -12.939,0.557 -25.544,-3.62 -35.801,-11.791 l -11.16,-9.869 c -1.219,-1.08 -3.079,-0.96 -4.16,0.258 -1.084,1.215 -0.965,3.079 0.258,4.165 l 28.989,25.649 c 13.398,11.853 33.94,10.598 45.79,-2.803 l 9.519,-10.76 c 0.008,-0.008 0.017,-0.015 0.025,-0.023 0,0 2.283,-2.582 5.619,-6.355 l 26.281,-29.707 c 9.01,-9.987 21.667,-15.646 35.371,-16.231 12.94,-0.555 25.544,3.62 35.802,11.791 l 11.16,9.87 c 1.219,1.079 3.079,0.961 4.159,-0.258 1.084,-1.214 0.966,-3.077 -0.258,-4.163"
       id="path4654" />
    <path
       style="fill:#ffb700"
       d="m 344.9136,560.51346 c 6.114,-6.91 14.78,-10.817 24.171,-11.222 8.759,-0.376 17.296,2.45 24.242,7.985 l 13.066,11.495 c 0.828,0.725 2.086,0.651 2.818,-0.179 0.734,-0.823 0.651,-2.086 -0.174,-2.817 l -25.141,-22.18 c -9.074,-8.023 -22.981,-7.174 -31.009,1.899 l -27.014,30.474 c -0.206,0.228 -0.341,0.489 -0.422,0.765 -0.21,0.718 -0.005,1.527 0.593,2.053 0.825,0.729 2.091,0.657 2.82,-0.171 0,0 15.867,-17.892 16.05,-18.102"
       id="path4656" />
    <path
       style="fill:#ffffff;stroke:#000000;stroke-opacity:1"
       d="m 449.8976,581.10846 c -2.702,0 -5.655,0.707 -9.009,2.159 -1.722,-1.434 -4.014,-2.159 -6.826,-2.159 -2.546,0 -5.151,0.431 -7.729,1.275 -1.443,0.453 -3.361,1.391 -3.361,4.275 l 0,23.493 5.219,0 0,-23.084 c 2.555,-0.771 4.118,-0.938 5.626,-0.938 3.485,0 5.039,1.66 5.039,5.382 l 0,18.641 5.218,0 0,-18.884 c 0,-1.394 -0.183,-2.658 -0.547,-3.775 2.205,-0.794 3.888,-1.263 6.076,-1.263 3.509,0 4.941,1.545 4.941,5.332 l 0,18.591 5.169,0 0,-18.885 c 0,-6.456 -3.578,-10.16 -9.816,-10.16"
       id="path4658" />
    <path
       style="fill:#ffffff;stroke:#000000;stroke-opacity:1"
       d="m 475.8196,603.10746 -8.082,-21.803 -5.826,0 11.17,29.022 -0.337,1.09 c -0.564,2.02 -1.281,2.636 -3.069,2.636 -0.871,0 -2.03,-0.247 -4.301,-0.803 l -1.134,-0.276 -0.854,4.955 0.938,0.27 c 2.04,0.59 3.774,0.876 5.302,0.876 4,0 6.815,-2.104 8.142,-6.088 l 10.578,-31.682 -5.644,0 -6.883,21.803 z"
       id="path4660" />
    <path
       style="fill:#ffffff;stroke:#000000;stroke-opacity:1"
       d="m 503.5676,581.10846 c -1.396,0 -3.805,0.135 -8.614,1.311 -2.229,0.59 -3.36,2 -3.36,4.19 l 0,32.972 5.121,-1.108 0,-9.353 c 3.375,1.007 5.217,1.229 6.853,1.229 8.049,0 12.855,-5.504 12.855,-14.72 0,-9.092 -4.805,-14.521 -12.855,-14.521 m 7.587,14.571 c 0,6.458 -2.529,9.599 -7.701,9.599 -1.304,-0.04 -2.903,-0.172 -6.739,-1.21 l 0,-16.944 c 3.67,-0.868 5.203,-0.944 6.558,-0.944 5.23,0 7.882,3.196 7.882,9.499"
       id="path4662" />
    <path
       style="fill:#ffffff;stroke:#000000;stroke-opacity:1"
       d="m 533.9846,581.01046 c -8.292,0 -13.442,5.641 -13.442,14.719 0,9.079 5.095,14.719 13.296,14.719 8.262,0 13.395,-5.64 13.395,-14.719 -10e-4,-9.079 -5.076,-14.719 -13.249,-14.719 m 7.98,14.719 c 0,8.176 -4.34,9.892 -7.98,9.892 -3.685,0 -8.077,-1.716 -8.077,-9.892 0,-3.677 1.029,-9.843 7.931,-9.843 5.164,0 8.126,3.588 8.126,9.843"
       id="path4664" />
    <path
       style="fill:#ffffff;stroke:#000000;stroke-opacity:1"
       d="m 577.1946,601.99646 -6.284,-18.606 c -0.446,-1.418 -1.558,-2.232 -3.049,-2.232 -1.512,0 -2.625,0.819 -3.04,2.207 l -6.357,18.545 -3.866,-20.604 -5.415,0 5.214,26.483 c 0.406,1.756 1.738,2.806 3.563,2.806 1.729,0 2.969,-0.896 3.48,-2.499 l 6.399,-18.564 6.106,18.529 c 0.769,2.135 2.314,2.584 3.477,2.584 1.802,0 3.115,-1.071 3.516,-2.874 l 5.624,-26.465 -5.28,0 -4.088,20.69 z"
       id="path4666" />
    <path
       style="fill:#ffffff;stroke:#000000;stroke-opacity:1"
       d="m 615.0766,595.14146 c 0,-8.909 -4.787,-14.229 -12.807,-14.229 -3.57,0 -6.782,1.291 -9.045,3.636 -2.524,2.618 -3.858,6.501 -3.858,11.229 0,9.186 5.099,14.669 13.639,14.669 2.846,0 5.092,-0.412 8.581,-1.575 l 3.291,-1.097 -1.123,-4.921 -3.521,1.148 c -3.127,0.965 -5.046,1.324 -7.081,1.324 -4.769,0 -7.754,-2.583 -8.331,-7.136 l 17.4,0 c 1.735,10e-4 2.855,-1.196 2.855,-3.048 m -5.355,-1.874 -14.894,0 c 0.584,-4.738 3.29,-7.528 7.394,-7.528 5.863,-10e-4 7.269,4.313 7.5,7.528"
       id="path4668" />
    <path
       style="fill:#ffffff;stroke:#000000;stroke-opacity:1"
       d="m 624.2156,582.37046 c -2.294,0.608 -3.409,1.994 -3.409,4.24 l 0,23.542 5.219,0 0,-22.942 c 2.996,-0.727 5.658,-0.883 8.666,-0.883 l 1.09,0 0,-5.219 -1.09,0 c -4.36,0 -6.6,0.191 -10.476,1.262"
       id="path4670" />
    <path
       style="fill:#ffffff;stroke:#000000;stroke-opacity:1"
       d="m 657.0596,595.73246 c 4.952,-4.657 6.422,-8.53 6.422,-12.207 0,-7.402 -5.196,-10.001 -10.687,-10.001 -2.894,0 -6.178,0.736 -9.806,1.863 l -1.765,0.539 0.638,2.942 1.863,-0.588 c 3.284,-1.03 6.519,-1.716 9.069,-1.716 4.166,0 7.647,1.814 7.647,6.912 0,3.775 -1.912,6.668 -5.687,10.295 l -12.746,12.256 c -0.59,0.589 -0.981,1.324 -0.981,2.206 0,1.275 0.735,2.108 2.01,2.108 l 20.541,0 0,-2.794 -19.069,0 12.551,-11.815 z"
       id="path4672" />
    <path
       style="fill:#ffffff;stroke:#000000;stroke-opacity:1"
       d="m 688.0666,600.58646 0,-24.659 c 0,-1.618 -0.784,-2.353 -2.255,-2.353 -1.078,0 -1.961,0.49 -2.647,1.568 l -15.688,24.072 c -0.441,0.638 -0.784,1.323 -0.784,2.107 0,1.226 0.588,2.01 2.01,2.01 l 16.325,0 0,7.011 3.039,0 0,-7.011 4.363,0 0,-2.745 -4.363,0 z m -3.039,0 -14.953,0 14.953,-23.042 0,23.042 z"
       id="path4674" />
  </g>
</svg>
