<?xml version="1.0" encoding="UTF-8" standalone="no"?>
<svg
   xmlns:dc="http://purl.org/dc/elements/1.1/"
   xmlns:cc="http://creativecommons.org/ns#"
   xmlns:rdf="http://www.w3.org/1999/02/22-rdf-syntax-ns#"
   xmlns:svg="http://www.w3.org/2000/svg"
   xmlns="http://www.w3.org/2000/svg"
   width="112.76308mm"
   height="47.07119mm"
   viewBox="0 0 399.55421 166.78766"
   id="svg4643"
   version="1.1">
  <defs
     id="defs4645" />
  <metadata
     id="metadata4648">
    <rdf:RDF>
      <cc:Work
         rdf:about="">
        <dc:format>image/svg+xml</dc:format>
        <dc:type
           rdf:resource="http://purl.org/dc/dcmitype/StillImage" />
        <dc:title></dc:title>
      </cc:Work>
    </rdf:RDF>
  </metadata>
  <path
     id="path4652"
     d="m 13.547828,77.513044 c -0.688899,-3.691316 -4.2586435,-6.141141 -7.9683798,-5.461453 -3.7060519,0.688898 -6.15219354,4.258644 -5.46329524,7.972064 0.6907403,3.71342 4.25311824,6.155877 7.96653804,5.476189 3.709735,-0.696266 6.157719,-4.258644 5.465137,-7.9868"
     style="fill:#ffb700" />
  <path
     id="path4654"
     d="M 397.71179,62.220975 344.31664,14.97434 c -24.68061,-21.831078 -62.5166,-19.5212424 -84.34399,5.161211 l -17.5356,19.819641 c -0.0129,0.01658 -0.0313,0.02763 -0.0461,0.04237 0,0 -4.20522,4.757819 -10.34821,11.707587 l -48.41076,54.717681 c -16.59434,18.39764 -39.91005,28.81952 -65.15246,29.89524 -23.833307,1.02598 -47.05139,-6.66795 -65.944519,-21.71872 L 31.97862,96.420908 c -2.245366,-1.989332 -5.671438,-1.768295 -7.662612,0.47523 -1.9967,2.238002 -1.777505,5.671442 0.47523,7.671822 l 53.396987,47.24479 c 24.678765,21.83292 62.516595,19.52124 84.343995,-5.16305 l 17.53375,-19.81964 c 0.0147,-0.0147 0.0313,-0.0276 0.0461,-0.0424 0,0 4.20523,-4.75597 10.35005,-11.70574 l 48.40887,-54.719497 c 16.59619,-18.395795 39.91006,-28.819526 65.15247,-29.897081 23.83514,-1.022296 47.05138,6.667946 65.94635,21.718716 l 20.55644,18.180285 c 2.24536,1.98749 5.67143,1.770137 7.66077,-0.47523 1.9967,-2.236156 1.77934,-5.667754 -0.47523,-7.668138"
     style="fill:#ffb700" />
  <path
     id="path4656"
     d="m 100.36191,65.151556 c 11.26183,-12.728041 27.22438,-19.924634 44.52235,-20.670633 16.13386,-0.692583 31.85879,4.512836 44.65314,14.708163 l 24.06723,21.173492 c 1.52516,1.335431 3.84236,1.199125 5.19069,-0.329713 1.35201,-1.515945 1.19912,-3.842358 -0.32051,-5.188841 L 172.16574,33.989038 C 155.45167,19.21088 129.83534,20.774716 115.04797,37.486947 L 65.28888,93.619266 c -0.379447,0.41997 -0.628113,0.900725 -0.777313,1.40911 -0.386815,1.322537 -0.0092,2.812694 1.092291,3.781574 1.519628,1.3428 3.851568,1.21018 5.194367,-0.31498 0,0 29.226605,-32.956599 29.563685,-33.343414"
     style="fill:#ffb700" />
</svg>
